<svg fill="#e5e7eb" width="256" height="256" viewBox="0 0 24 24" xmlns="http://www.w3.org/2000/svg" stroke="#e5e7eb" stroke-width="0" transform="scale(-1 1)">
    <rect width="24" height="24" rx="2.4" fill="#1e2939" stroke="none"/>
    <path d="M23 11a1 1 0 0 1-1 1h-2.341l-2.74 6.394a1.015 1.015 0 0 1-.982.6 1 1 0 0 1-.9-.724L12.064 7.865 8.97 20.242a1 1 0 0 1-.913.758H8a1 1 0 0 1-.937-.648L4.307 13H2a1 1 0 0 1 0-2h3a1 1 0 0 1 .937.648l1.872 4.994L11.03 3.758a1 1 0 0 1 1.931-.032l3.228 11.3 1.892-4.415A1 1 0 0 1 19 10h3a1 1 0 0 1 1 1Z" stroke="none"/>
</svg>
